<?xml version="1.0" encoding="utf-8"?>
<!-- Generator: Adobe Illustrator 16.0.0, SVG Export Plug-In . SVG Version: 6.00 Build 0)  -->
<!DOCTYPE svg PUBLIC "-//W3C//DTD SVG 1.1//EN" "http://www.w3.org/Graphics/SVG/1.1/DTD/svg11.dtd">
<svg version="1.1" id="Capa_1" xmlns="http://www.w3.org/2000/svg" xmlns:xlink="http://www.w3.org/1999/xlink" x="0px" y="0px"
	 width="595px" height="614px" viewBox="0 112.5 595 614" enable-background="new 0 112.5 595 614" xml:space="preserve">
<g>
	<g>
		<path fill="#FFFFFF" d="M330.371,421.002l257.821-257.823c9.077-9.077,9.077-23.794,0-32.87c-9.077-9.076-23.794-9.077-32.87,0
			L297.5,388.131L39.678,130.309c-9.077-9.077-23.794-9.077-32.87,0s-9.077,23.794,0,32.87l257.822,257.822L6.808,678.823
			c-9.077,9.077-9.077,23.794,0,32.87c4.538,4.538,10.487,6.807,16.436,6.807s11.896-2.269,16.436-6.807L297.5,453.872
			l257.822,257.821c4.538,4.538,10.486,6.807,16.436,6.807c5.948,0,11.896-2.269,16.436-6.807c9.077-9.077,9.077-23.794,0-32.87
			L330.371,421.002z"/>
	</g>
</g>
</svg>
