<?xml version="1.0" encoding="utf-8"?>
<!-- Generator: Adobe Illustrator 19.0.0, SVG Export Plug-In . SVG Version: 6.00 Build 0)  -->
<svg version="1.1" id="Layer_1" xmlns="http://www.w3.org/2000/svg" xmlns:xlink="http://www.w3.org/1999/xlink" x="0px" y="0px"
	 viewBox="0 0 180.9 171.6" style="enable-background:new 0 0 180.9 171.6;" xml:space="preserve">
<style type="text/css">
	.st0{fill:#929292;}
</style>
<g id="XMLID_2_">
	<path id="XMLID_3_" class="st0" d="M51,96.7L11.1,56.8C3.7,49.4,0,40.6,0,30.2C0,19.9,3.7,11,11.1,3.6l66.5,66L51,96.7z
		 M114.8,79.4L101,93.2l65.1,65.1l-13.3,13.3l-65.1-65.1l-65.1,65.1L9.3,158.3l92.2-92.2c-3.5-7.1-4.1-15.4-1.6-24.8
		c2.5-9.5,7.5-17.9,14.8-25.3c9.2-9.2,19.3-14.4,30.6-15.7c11.2-1.3,20.2,1.4,27,8.2c6.8,6.8,9.5,15.9,8.2,27.3
		c-1.3,11.4-6.6,21.6-15.7,30.8c-7.4,7.4-15.8,12.3-25.3,14.6C130.1,83.6,121.8,83,114.8,79.4z"/>
</g>
</svg>
