<?xml version="1.0" encoding="utf-8"?>
<!-- Generator: Adobe Illustrator 19.0.0, SVG Export Plug-In . SVG Version: 6.00 Build 0)  -->
<svg version="1.1" id="Layer_1" xmlns="http://www.w3.org/2000/svg" xmlns:xlink="http://www.w3.org/1999/xlink" x="0px" y="0px"
	 viewBox="0 0 384 301.6" style="enable-background:new 0 0 384 301.6;" xml:space="preserve">
<style type="text/css">
	.st0{fill:#929292;}
</style>
<g>
	<path class="st0" d="M330.2,179.8c-0.6-8.2-1.6-17.1-3.1-26.5c-0.6-4.1-4.5-6.9-8.6-6.3c-4.1,0.6-6.9,4.5-6.3,8.6
		c1.4,8.6,2.3,16.8,2.9,24.3c-27,3.6-48.9,25.7-52.3,52.8h-24.7l25.9-42.8c7.9-13,12-27.8,12-43V69.8c0,0,0,0,0,0V62
		c3.1,1.9,6.5,3.4,10.1,4.2c3.6,7,7.3,16.1,10.9,26.7c1.3,3.9,5.6,6,9.5,4.7c3.9-1.3,6-5.6,4.7-9.5c-2.6-7.9-5.4-14.9-8.1-21.1h7.7
		c4.1,0,7.5-3.4,7.5-7.5v-52c0-4.1-3.4-7.5-7.5-7.5h-17.4c-17.3,0-31.6,13.7-32.4,30.8c-4.9-3.1-10.6-4.8-16.8-4.8h-23.3
		c-4.1,0-7.5,3.4-7.5,7.5c0,4.1,3.4,7.5,7.5,7.5h23.3c9.2,0,16.7,7.5,16.7,16.7v89.2c0,12.4-3.4,24.6-9.8,35.2l-30.6,50.6H169v-64.1
		c0-11.9-4.6-22.7-12-30.9h4.5c4.1,0,7.5-3.4,7.5-7.5v-8.5c0-18.4-15-33.4-33.4-33.4h-21.4V29.7c0-4.1-3.4-7.5-7.5-7.5H7.8
		c-4.1,0-7.5,3.4-7.5,7.5v100.5c0,4.1,3.4,7.5,7.5,7.5h25.3C13.1,152.2,0,175.7,0,202.3v37.8c0,4.1,3.4,7.5,7.5,7.5h29.7
		c-0.3,2-0.4,4.1-0.4,6.2c0,26.4,21.4,47.8,47.8,47.8c26.4,0,47.8-21.4,47.8-47.8c0-2.1-0.1-4.1-0.4-6.2h143.8
		c-0.3,2-0.4,4.1-0.4,6.2c0,26.4,21.4,47.8,47.8,47.8c26.4,0,47.8-21.4,47.8-47.8c0-2.1-0.1-4.1-0.4-6.2h5.9c4.1,0,7.5-3.4,7.5-7.5
		C384,209,360.4,183.3,330.2,179.8L330.2,179.8z M276.1,32.4c0-9.6,7.8-17.4,17.4-17.4h9.9v37h-9.9C282.5,52,276.1,42.6,276.1,32.4
		L276.1,32.4z M84.6,286.6c-18.1,0-32.8-14.7-32.8-32.8c0-2.1,0.2-4.1,0.6-6.1h64.4c0.4,2,0.6,4.1,0.6,6.1
		C117.4,271.9,102.7,286.6,84.6,286.6L84.6,286.6z M135.6,103.3c10.1,0,18.4,8.3,18.4,18.4v1h-39.8v-19.4H135.6z M15.3,37.2h83.8V57
		H15.3V37.2z M15.3,72h83.8v50.8H15.3V72z M15,202.3c0-35.6,29-64.6,64.6-64.6h43.5c17,0,30.9,13.8,30.9,30.9v64.1H15V202.3z
		 M323.2,286.6c-18.1,0-32.8-14.7-32.8-32.8c0-2.1,0.2-4.1,0.6-6.1h64.4c0.4,2,0.6,4.1,0.6,6.1C356,271.9,341.3,286.6,323.2,286.6
		L323.2,286.6z M368.4,232.7h-90.3c3.6-21.8,23.1-38.3,45.2-38.3C345.9,194.4,364.8,211,368.4,232.7L368.4,232.7z M368.4,232.7"/>
	<path class="st0" d="M317.2,114.7c-2.7-1.8-6.3-1.6-8.8,0.3c-2.5,1.9-3.5,5.3-2.5,8.3c2.2,6.3,11.3,6.7,14,0.6
		C321.3,120.7,320.1,116.7,317.2,114.7L317.2,114.7z M317.2,114.7"/>
</g>
</svg>
