<?xml version="1.0" encoding="utf-8"?>
<!-- Generator: Adobe Illustrator 16.0.0, SVG Export Plug-In . SVG Version: 6.00 Build 0)  -->
<!DOCTYPE svg PUBLIC "-//W3C//DTD SVG 1.1//EN" "http://www.w3.org/Graphics/SVG/1.1/DTD/svg11.dtd">
<svg version="1.1" id="Layer_1" xmlns="http://www.w3.org/2000/svg" xmlns:xlink="http://www.w3.org/1999/xlink" x="0px" y="0px"
	 width="404px" height="424px" viewBox="53 205.5 404 424" enable-background="new 53 205.5 404 424" xml:space="preserve">
<g>
	<path fill="#9F9F9F" d="M118.193,580.751c-1.438,2.616-3.667,3.399-5.758,3.399c-2.091,0-4.184-0.783-5.622-3.399l-15.045-28.255
		v57.291c0,3.534-4.315,5.366-8.498,5.366c-4.32,0-8.503-1.832-8.503-5.366V528.03c0-6.275,4.183-8.496,8.503-8.496
		c6.145,0,8.895,1.306,13.21,9.02l16.092,29.304l16.086-29.304c4.32-7.714,7.196-9.02,13.347-9.02c4.314,0,8.498,2.221,8.498,8.496
		v81.757c0,3.534-4.314,5.366-8.498,5.366c-4.32,0-8.503-1.832-8.503-5.366V553.54L118.193,580.751z"/>
	<path fill="#9F9F9F" d="M197.845,560.601h19.883c3.399,0,5.361,3.275,5.361,6.804c0,3.009-1.7,6.543-5.361,6.543h-19.883v26.29
		h37.016c3.406,0,5.366,3.529,5.366,7.589c0,3.529-1.698,7.327-5.366,7.327h-46.565c-3.792,0-7.458-1.837-7.458-5.366v-84.895
		c0-3.529,3.661-5.366,7.458-5.366h46.565c3.667,0,5.366,3.798,5.366,7.327c0,4.06-1.96,7.589-5.366,7.589h-37.016V560.601z"/>
	<path fill="#9F9F9F" d="M309.943,609.787l-28.125-52.586v52.586c0,3.534-4.314,5.366-8.503,5.366c-4.314,0-8.503-1.832-8.503-5.366
		v-84.895c0-3.659,4.189-5.358,8.503-5.358c6.151,0,8.633,1.306,12.693,9.02l25.242,48.793v-52.584c0-3.661,4.185-5.236,8.503-5.236
		c4.185,0,8.499,1.57,8.499,5.236v85.024c0,3.529-4.314,5.366-8.499,5.366C315.696,615.153,312.167,613.845,309.943,609.787z"/>
	<path fill="#9F9F9F" d="M403.988,524.763c0-3.661,4.185-5.229,8.498-5.229c4.189,0,8.504,1.567,8.504,5.229v61.219
		c0,21.845-13.864,29.954-31.395,29.954c-17.66,0-31.395-8.109-31.395-29.954v-61.219c0-3.661,4.185-5.229,8.506-5.229
		c4.182,0,8.496,1.567,8.496,5.229v61.219c0,10.203,5.365,15.046,14.393,15.046c9.026,0,14.388-4.843,14.388-15.046v-61.219H403.988
		z"/>
	<path fill="#9F9F9F" d="M431.473,423.09h-10.722c-4.139-76.104-59.77-138.733-132.579-153.558l2.133-20.377
		c0.699-6.65-1.472-13.313-5.945-18.274c-4.473-4.968-10.875-7.816-17.56-7.816h-23.594c-6.69,0-13.085,2.854-17.563,7.816
		c-4.474,4.968-6.64,11.629-5.94,18.274l2.131,20.377c-72.809,14.825-128.44,77.447-132.579,153.553h-10.72
		c-9.481,0-17.195,7.714-17.195,17.194v22.795c0,9.479,7.713,17.192,17.195,17.192h352.931c9.481,0,17.195-7.714,17.195-17.192
		v-22.795C448.66,430.804,440.951,423.09,431.473,423.09z M242.057,245.664c0.307-0.335,0.687-0.505,1.148-0.505H266.8
		c0.455,0,0.841,0.17,1.149,0.505c0.306,0.341,0.438,0.745,0.386,1.194l-2.064,19.735c-3.722-0.25-7.48-0.393-11.266-0.393
		c-3.792,0-7.543,0.143-11.266,0.393l-2.069-19.735C241.624,246.409,241.756,246.005,242.057,245.664z M426.571,458.181H83.434
		V445.18h46.548c6.105,0,11.051-4.945,11.051-11.045s-4.946-11.045-11.051-11.045h-18.593
		c4.718-75.122,67.324-134.794,143.611-134.794c76.294,0,138.901,59.672,143.618,134.794H181.378
		c-6.104,0-11.044,4.945-11.044,11.045s4.94,11.045,11.044,11.045h245.193V458.181z"/>
</g>
</svg>
