<?xml version="1.0" encoding="utf-8"?>
<!-- Generator: Adobe Illustrator 19.0.0, SVG Export Plug-In . SVG Version: 6.00 Build 0)  -->
<svg version="1.1" id="Layer_1" xmlns="http://www.w3.org/2000/svg" xmlns:xlink="http://www.w3.org/1999/xlink" x="0px" y="0px"
	 viewBox="0 0 216.1 308.9" style="enable-background:new 0 0 216.1 308.9;" xml:space="preserve">
<style type="text/css">
	.st0{fill:#929292;}
</style>
<g id="XMLID_2_">
	<path id="XMLID_3_" class="st0" d="M31.5,31.5C52.6,10.5,78.1,0,108.1,0c30,0,55.5,10.5,76.5,31.5s31.5,46.5,31.5,76.5
		c0,15-3.7,32.2-11.2,51.5c-7.5,19.3-16.6,37.5-27.2,54.4c-10.6,16.9-21.2,32.8-31.5,47.5c-10.4,14.8-19.2,26.5-26.5,35.2
		l-11.6,12.3c-2.9-3.4-6.8-7.9-11.6-13.4c-4.8-5.6-13.5-16.7-26.1-33.4c-12.6-16.7-23.6-32.9-33-48.6c-9.4-15.7-18-33.5-25.7-53.3
		C3.9,140.5,0,123,0,108.1C0,78.1,10.5,52.6,31.5,31.5z M80.9,135.3c7.5,7.5,16.6,11.2,27.2,11.2c10.6,0,19.7-3.7,27.2-11.2
		c7.5-7.5,11.2-16.6,11.2-27.2c0-10.6-3.7-19.7-11.2-27.2c-7.5-7.5-16.6-11.2-27.2-11.2c-10.6,0-19.7,3.7-27.2,11.2
		c-7.5,7.5-11.2,16.6-11.2,27.2C69.6,118.7,73.4,127.8,80.9,135.3z"/>
</g>
</svg>
