<?xml version="1.0" encoding="utf-8"?>
<!-- Generator: Adobe Illustrator 19.0.0, SVG Export Plug-In . SVG Version: 6.00 Build 0)  -->
<svg version="1.1" id="Layer_1" xmlns="http://www.w3.org/2000/svg" xmlns:xlink="http://www.w3.org/1999/xlink" x="0px" y="0px"
	 viewBox="0 0 204.6 204.6" style="enable-background:new 0 0 204.6 204.6;" xml:space="preserve">
<style type="text/css">
	.st0{fill:#929292;}
</style>
<g id="XMLID_2_">
	<path id="XMLID_3_" class="st0" d="M41,88.4c17,33,42.1,58.1,75.1,75.1l25-25c3.5-3.5,7.5-4.4,11.7-2.7c12.8,4.3,26.3,6.4,40.5,6.4
		c3.2,0,5.9,1.1,8,3.2c2.1,2.1,3.2,4.8,3.2,8v40c0,3.2-1.1,5.9-3.2,8c-2.1,2.1-4.8,3.2-8,3.2c-53.3,0-98.8-18.9-136.7-56.7
		S0,64.5,0,11.2c0-3.2,1.1-5.9,3.2-8S8,0,11.2,0h40c3.2,0,5.9,1.1,8,3.2s3.2,4.8,3.2,8c0,14.2,2.1,27.7,6.4,40.5
		c1.4,4.6,0.5,8.5-2.7,11.7L41,88.4z"/>
</g>
</svg>
